# xmcd
#
# Track frame offsets:
# 183
# 13408
# 26783
# 39158
# 52533
# 65008
# 77458
# 89270
# 101108
# 114383
# 126858
# 142145
# 155770
# 172045
#
# Disc length: 2477 seconds
#
#
# Revision: 3
# Processed by: cddbd v1.5.1PL0 Copyright (c) Steve Scherf et al.
# Submitted via: FreeRIP 2.51 
#
DISCID=ba09ab0e
DTITLE=Various Artist - Electric Blues
DYEAR=1992
DGENRE=Blues
TTITLE0=Elmore James - Dust My Broom
TTITLE1=Elmore James - Standing At The Crossroads
TTITLE2=Elmore James - Blues Before Sunrise
TTITLE3=B.B. King - Sweet Little Angel
TTITLE4=B.B. King - Everyday I Have The Blues
TTITLE5=B.B. King - Rock Me Baby
TTITLE6=Muddy Waters - Baby Please Don't Go
TTITLE7=Muddy Waters - Got My Mojo Working
TTITLE8=Muddy Waters - I'm Your Hoochie Coochie Man
TTITLE9=Howlin' Wolf - Ain't Superstitious
TTITLE10=Howlin' Wolf - Killing Floor
TTITLE11=Howlin' Wolf - Highway 49
TTITLE12=Sonny Boy Williamson - Bye Bye Bird
TTITLE13=Sonny Boy Williamson - Out On The Water Coast
EXTD=
EXTT0=
EXTT1=
EXTT2=
EXTT3=
EXTT4=
EXTT5=
EXTT6=
EXTT7=
EXTT8=
EXTT9=
EXTT10=
EXTT11=
EXTT12=
EXTT13=
PLAYORDER=
